<svg xmlns="http://www.w3.org/2000/svg" viewBox="0 0 64 64" role="img" aria-labelledby="title desc">
  <title id="title">BlueFuture</title>
  <desc id="desc">A precise blue signal mark forming the letter B.</desc>
  <rect width="64" height="64" rx="12" fill="#07111F"/>
  <path d="M17 15h19c8.3 0 13 4.1 13 10.2 0 4.1-2.2 7.1-6.4 8.7 5.1 1.4 7.7 4.7 7.7 9.2C50.3 50 45 54 36.1 54H17V15Zm9 7.5v8.4h9.2c3.2 0 4.9-1.4 4.9-4.2 0-2.8-1.7-4.2-4.9-4.2H26Zm0 15.7v8.3h10.3c3.4 0 5.1-1.4 5.1-4.2 0-2.7-1.8-4.1-5.2-4.1H26Z" fill="#F7FAFF"/>
  <path d="M13 12h32" stroke="#2878FF" stroke-width="4" stroke-linecap="round"/>
  <path d="M13 58h24" stroke="#24D1B5" stroke-width="4" stroke-linecap="round"/>
</svg>
